HIERARCHY
ROOT Hips
{
	OFFSET 0.00 86.18 0.00
	CHANNELS 6 Xposition Yposition Zposition Yrotation Xrotation Zrotation
	JOINT RightUpLeg
	{
		OFFSET -9.25 0.00 0.00
		CHANNELS 6 Xposition Yposition Zposition Yrotation Xrotation Zrotation
		JOINT RightLeg
		{
			OFFSET 0.00 -42.00 0.00
			CHANNELS 6 Xposition Yposition Zposition Yrotation Xrotation Zrotation
			JOINT RightFoot
			{
				OFFSET 0.00 -42.00 0.00
				CHANNELS 6 Xposition Yposition Zposition Yrotation Xrotation Zrotation
				End Site
				{
					OFFSET 0 -1.14 11.36
				}
			}
		}
	}
	JOINT LeftUpLeg
	{
		OFFSET 9.25 0.00 0.00
		CHANNELS 6 Xposition Yposition Zposition Yrotation Xrotation Zrotation
		JOINT LeftLeg
		{
			OFFSET 0.00 -42.00 0.00
			CHANNELS 6 Xposition Yposition Zposition Yrotation Xrotation Zrotation
			JOINT LeftFoot
			{
				OFFSET 0.00 -42.00 0.00
				CHANNELS 6 Xposition Yposition Zposition Yrotation Xrotation Zrotation
				End Site
				{
					OFFSET 0 -1.14 11.36
				}
			}
		}
	}
	JOINT Spine
	{
		OFFSET 0.00 10.46 0.00
		CHANNELS 6 Xposition Yposition Zposition Yrotation Xrotation Zrotation
		JOINT Spine1
		{
			OFFSET 0.00 9.75 0.00
			CHANNELS 6 Xposition Yposition Zposition Yrotation Xrotation Zrotation
			JOINT Spine2
			{
				OFFSET 0.00 10.15 0.00
				CHANNELS 6 Xposition Yposition Zposition Yrotation Xrotation Zrotation
				JOINT Spine3
				{
					OFFSET 0.00 9.75 0.00
					CHANNELS 6 Xposition Yposition Zposition Yrotation Xrotation Zrotation
			 		JOINT Neck
					{
						OFFSET 0.00 10.42 0.00
						CHANNELS 6 Xposition Yposition Zposition Yrotation Xrotation Zrotation
						JOINT Head
						{
							OFFSET 0.00 9.50 0.00
							CHANNELS 6 Xposition Yposition Zposition Yrotation Xrotation Zrotation
							End Site
							{
								OFFSET 0 16.00 0
							}
						}    
					} 
					JOINT RightShoulder
	 					{
						OFFSET -3.20 6.94 0.00
						CHANNELS 6 Xposition Yposition Zposition Yrotation Xrotation Zrotation
						JOINT RightArm
						{
							OFFSET -16.00 0.00 0.00
							CHANNELS 6 Xposition Yposition Zposition Yrotation Xrotation Zrotation
							JOINT RightForeArm
							{
								OFFSET -26.50 0.00 0.00
								CHANNELS 6 Xposition Yposition Zposition Yrotation Xrotation Zrotation
								JOINT RightHand
								{
									OFFSET -26.00 0.00 0.00
									CHANNELS 6 Xposition Yposition Zposition Yrotation Xrotation Zrotation
									End Site
									{
										OFFSET -17.50 0 0
									}
								}
							}
						}	
					}
					JOINT LeftShoulder
					{
						OFFSET 3.20 6.94 0.00
						CHANNELS 6 Xposition Yposition Zposition Yrotation Xrotation Zrotation
						JOINT LeftArm
						{
							OFFSET 16.00 0.00 0.00
							CHANNELS 6 Xposition Yposition Zposition Yrotation Xrotation Zrotation
							JOINT LeftForeArm
							{
								OFFSET 26.50 0.00 0.00
								CHANNELS 6 Xposition Yposition Zposition Yrotation Xrotation Zrotation
								JOINT LeftHand
								{
									OFFSET 26.00 0.00 0.00
									CHANNELS 6 Xposition Yposition Zposition Yrotation Xrotation Zrotation
									End Site
									{
										OFFSET 17.50 0 0
									}
								}
							}
						}
					}     			
				}
			}
		} 
	} 
}
MOTION
Frames: 14
Frame Time: 0.010
94.20 92.13 51.25 39.23 -8.69 1.67 -8.27 -0.80 -2.35 -6.83 -10.17 -8.69 1.53 -41.57 -2.41 2.09 24.95 3.76 0.48 -42.07 -0.87 -12.12 -7.97 -0.73 8.45 0.60 4.28 2.14 -6.50 3.53 -1.73 -43.22 4.07 26.51 62.89 25.83 -1.71 -40.45 1.21 -4.17 8.98 5.23 -0.53 10.39 0.39 -13.20 10.45 5.75 -0.76 9.54 0.50 -3.22 2.66 1.66 -0.57 10.20 1.12 -5.05 4.52 2.63 -0.58 9.74 1.16 2.40 -0.79 -1.11 -0.50 10.51 0.72 28.18 2.49 -7.35 0.01 9.41 -0.31 28.56 1.77 -18.44 -3.84 6.06 1.22 0.37 4.70 -15.27 -15.42 -4.94 -2.50 30.50 -34.72 59.09 -29.05 -4.54 -3.96 84.60 -12.78 2.70 -26.34 -1.89 -3.31 15.35 -60.38 12.32 2.88 6.92 0.66 9.31 -6.65 6.62 16.65 -1.45 -0.98 -28.16 -27.04 2.09 26.47 -2.19 -3.64 7.01 -32.26 1.00 26.32 -0.48 -3.93 4.08 -1.12 17.39 
94.07 92.03 50.99 39.30 -8.92 1.27 -8.21 -0.87 -2.58 -7.36 -10.90 -8.38 1.61 -41.50 -2.66 3.12 25.63 3.97 0.52 -42.07 -0.98 -12.66 -7.88 -0.50 8.41 0.62 4.71 2.67 -4.83 4.13 -1.91 -43.13 4.49 25.80 62.34 26.13 -1.86 -40.20 1.26 -3.95 10.05 6.25 -0.52 10.39 0.37 -13.45 10.24 5.70 -0.66 9.55 0.39 -3.29 2.61 1.65 -0.56 10.17 1.10 -5.15 4.44 2.61 -0.57 9.72 1.13 2.41 -0.76 -1.08 -0.49 10.51 0.57 28.00 2.37 -7.08 0.07 9.43 -0.39 28.74 2.17 -17.90 -3.85 5.96 1.20 0.40 4.20 -15.88 -15.30 -5.64 -2.87 34.24 -37.23 55.39 -28.97 -5.45 -4.60 83.03 -13.13 -0.29 -26.20 -2.39 -3.61 14.07 -60.68 13.03 2.90 6.91 0.58 9.36 -6.65 7.18 16.73 -1.63 -1.16 -29.23 -26.27 2.60 26.37 -2.51 -4.10 6.45 -31.16 1.81 26.24 -0.66 -4.51 4.50 -1.17 16.71 
93.95 91.97 50.88 39.43 -9.18 0.94 -8.07 -0.94 -2.84 -8.12 -11.55 -8.23 1.72 -41.41 -2.96 3.30 26.28 3.88 0.59 -42.07 -1.08 -12.31 -7.73 -0.25 8.38 0.62 5.22 3.17 -3.08 4.63 -2.13 -43.03 4.97 24.66 61.51 25.94 -2.03 -39.96 1.30 -3.77 10.95 6.59 -0.49 10.39 0.37 -13.77 10.02 5.64 -0.56 9.56 0.29 -3.37 2.56 1.63 -0.54 10.15 1.09 -5.29 4.36 2.59 -0.55 9.70 1.11 2.43 -0.72 -1.06 -0.46 10.50 0.43 28.05 2.29 -6.85 0.14 9.44 -0.46 28.80 2.67 -17.35 -3.84 5.87 1.24 0.22 3.32 -16.27 -15.21 -6.39 -3.30 38.66 -39.00 51.33 -28.78 -6.55 -5.30 81.40 -13.59 -3.40 -26.02 -3.01 -3.96 13.09 -60.92 13.06 2.92 6.92 0.48 9.34 -6.63 7.55 16.83 -1.81 -1.37 -30.34 -25.82 3.36 26.24 -2.83 -4.70 5.87 -29.99 2.58 26.12 -0.85 -5.23 4.68 -1.07 16.53 
93.90 91.96 50.90 39.62 -9.47 0.75 -7.88 -1.01 -3.16 -8.64 -12.15 -8.37 1.92 -41.30 -3.38 2.44 26.89 3.42 0.64 -42.08 -1.21 -11.01 -7.51 0.11 8.37 0.60 5.85 3.67 -1.24 4.98 -2.41 -42.91 5.55 22.57 60.42 24.84 -2.22 -39.72 1.34 -3.39 12.08 6.36 -0.46 10.40 0.39 -14.12 9.82 5.51 -0.45 9.58 0.22 -3.46 2.51 1.60 -0.51 10.13 1.09 -5.44 4.28 2.53 -0.51 9.69 1.10 2.44 -0.69 -1.04 -0.41 10.50 0.30 28.18 2.22 -6.63 0.22 9.47 -0.50 28.84 3.16 -16.76 -3.79 5.86 1.50 -1.46 2.56 -16.17 -15.25 -7.22 -3.60 45.41 -40.41 45.81 -28.46 -7.92 -6.05 79.78 -14.36 -6.71 -25.81 -3.75 -4.41 12.23 -60.92 12.80 2.95 6.91 0.36 9.30 -6.49 7.85 16.95 -2.00 -1.63 -31.39 -25.74 4.11 26.09 -3.16 -5.49 4.75 -28.74 3.54 25.94 -1.05 -6.16 5.14 -0.20 17.03 
93.92 91.98 51.01 39.43 -9.18 0.94 -8.03 -0.93 -2.87 -8.12 -11.56 -8.23 1.77 -41.40 -3.02 3.31 26.29 3.88 0.59 -42.09 -1.08 -12.32 -7.73 -0.25 8.46 0.59 5.30 3.18 -3.05 4.64 -2.09 -42.95 4.97 24.65 61.50 25.94 -1.99 -39.92 1.20 -3.75 10.99 6.62 -0.39 10.41 0.33 -13.77 10.02 5.64 -0.36 9.61 0.16 -3.37 2.55 1.63 -0.46 10.15 0.97 -5.29 4.36 2.59 -0.47 9.71 0.98 2.43 -0.72 -1.06 -0.35 10.51 0.18 28.05 2.29 -6.85 0.27 9.50 -0.47 28.80 2.67 -17.34 -3.78 5.87 1.15 0.21 3.31 -16.29 -15.21 -6.42 -3.20 38.95 -39.16 51.01 -28.81 -6.56 -5.23 81.25 -13.64 -3.55 -26.06 -3.09 -3.98 12.99 -60.94 13.13 2.98 6.91 0.33 9.34 -6.63 7.56 16.86 -1.82 -1.43 -30.35 -25.81 3.37 26.27 -2.86 -4.86 5.84 -29.97 2.60 26.17 -0.85 -5.43 4.69 -1.07 16.52 
94.03 92.04 51.18 39.30 -8.92 1.27 -8.15 -0.84 -2.62 -7.36 -10.92 -8.38 1.69 -41.47 -2.74 3.13 25.65 3.97 0.53 -42.10 -0.99 -12.66 -7.88 -0.50 8.54 0.56 4.82 2.69 -4.79 4.13 -1.83 -42.98 4.47 25.79 62.33 26.15 -1.78 -40.14 1.06 -3.94 10.09 6.28 -0.34 10.42 0.29 -13.45 10.23 5.70 -0.30 9.64 0.13 -3.29 2.61 1.65 -0.42 10.16 0.88 -5.15 4.44 2.61 -0.42 9.72 0.88 2.41 -0.76 -1.08 -0.28 10.51 0.10 28.00 2.37 -7.07 0.31 9.52 -0.43 28.74 2.17 -17.90 -3.74 5.96 1.02 0.40 4.19 -15.89 -15.30 -5.63 -2.65 34.56 -37.45 55.04 -29.02 -5.39 -4.39 82.86 -13.19 -0.48 -26.28 -2.49 -3.60 13.95 -60.70 13.12 3.01 6.91 0.29 9.36 -6.65 7.19 16.78 -1.64 -1.25 -29.24 -26.26 2.61 26.43 -2.56 -4.35 6.41 -31.14 1.83 26.35 -0.67 -4.82 4.51 -1.15 16.70 
94.16 92.12 51.40 39.23 -8.69 1.66 -8.21 -0.76 -2.37 -6.84 -10.19 -8.69 1.62 -41.55 -2.47 2.10 24.98 3.76 0.46 -42.10 -0.90 -12.12 -7.96 -0.73 8.61 0.53 4.40 2.17 -6.44 3.54 -1.60 -42.99 4.02 26.47 62.87 25.83 -1.57 -40.40 0.94 -4.15 9.06 5.27 -0.29 10.43 0.24 -13.21 10.45 5.75 -0.28 9.67 0.09 -3.23 2.66 1.66 -0.39 10.17 0.79 -5.05 4.52 2.63 -0.39 9.74 0.79 2.40 -0.79 -1.10 -0.24 10.51 0.02 28.18 2.48 -7.35 0.34 9.55 -0.39 28.56 1.78 -18.43 -3.70 6.07 0.93 0.35 4.67 -15.30 -15.43 -4.91 -2.20 31.04 -35.11 58.46 -29.08 -4.43 -3.67 84.31 -12.94 2.35 -26.43 -2.02 -3.23 15.19 -60.42 12.42 3.02 6.91 0.25 9.31 -6.65 6.63 16.71 -1.47 -1.09 -28.19 -27.02 2.10 26.55 -2.26 -3.91 6.93 -32.21 1.05 26.47 -0.50 -4.29 4.10 -1.05 17.37 
94.30 92.23 51.70 39.18 -8.48 2.05 -8.23 -0.69 -2.08 -6.86 -9.30 -9.03 1.54 -41.62 -2.19 1.33 24.05 3.66 0.40 -42.09 -0.81 -11.40 -7.97 -1.00 8.67 0.49 4.01 1.65 -8.02 2.97 -1.39 -42.99 3.62 26.92 63.14 25.16 -1.39 -40.60 0.84 -4.44 8.38 4.91 -0.26 10.44 0.20 -12.98 10.64 5.83 -0.30 9.69 0.05 -3.17 2.71 1.68 -0.38 10.18 0.72 -4.95 4.59 2.67 -0.38 9.75 0.72 2.39 -0.82 -1.14 -0.24 10.51 -0.02 28.47 2.65 -7.67 0.36 9.56 -0.37 28.24 1.62 -18.98 -3.68 6.17 0.83 0.58 4.72 -14.73 -15.54 -4.19 -1.83 27.22 -31.91 62.10 -29.04 -3.56 -2.96 85.78 -12.57 5.35 -26.52 -1.61 -2.85 16.83 -60.24 10.98 3.01 6.92 0.22 9.35 -6.56 5.94 16.65 -1.32 -0.94 -27.52 -28.04 1.91 26.63 -1.99 -3.51 7.71 -32.68 0.37 26.55 -0.41 -3.78 3.49 -1.89 17.96 
94.45 92.36 52.09 39.12 -8.26 2.37 -8.32 -0.62 -1.89 -6.61 -8.51 -9.06 1.40 -41.67 -2.01 1.05 23.14 3.60 0.35 -42.10 -0.74 -11.42 -8.00 -1.28 8.73 0.46 3.64 1.17 -9.60 2.50 -1.21 -42.97 3.25 27.38 63.15 24.38 -1.25 -40.72 0.76 -4.72 7.90 4.89 -0.25 10.44 0.17 -12.77 10.80 5.95 -0.33 9.71 0.03 -3.11 2.75 1.71 -0.36 10.19 0.66 -4.86 4.66 2.71 -0.37 9.76 0.66 2.39 -0.84 -1.17 -0.25 10.50 -0.04 28.98 2.85 -8.03 0.34 9.56 -0.36 27.80 1.52 -19.49 -3.64 6.36 0.97 -0.74 4.55 -13.50 -15.73 -3.48 -1.31 25.71 -28.48 64.29 -28.92 -2.84 -2.35 87.02 -12.18 8.41 -26.57 -1.30 -2.48 18.60 -60.26 9.13 3.00 6.94 0.21 9.32 -6.28 5.27 16.61 -1.16 -0.81 -27.05 -29.16 1.94 26.68 -1.75 -3.13 8.60 -33.05 -0.08 26.59 -0.34 -3.31 2.70 -3.61 18.37 
94.61 92.49 52.55 39.09 -8.04 2.61 -8.41 -0.57 -1.72 -6.57 -7.66 -8.94 1.28 -41.73 -1.85 1.77 22.13 3.71 0.33 -42.11 -0.67 -12.19 -8.05 -1.36 8.76 0.43 3.33 0.55 -11.07 2.20 -1.11 -42.98 2.96 27.77 62.94 23.47 -1.16 -40.89 0.67 -5.18 6.63 4.47 -0.23 10.45 0.14 -12.52 10.98 6.01 -0.36 9.72 0.00 -3.05 2.79 1.72 -0.35 10.19 0.60 -4.75 4.72 2.74 -0.36 9.77 0.61 2.38 -0.87 -1.19 -0.26 10.50 -0.05 29.34 3.02 -8.30 0.33 9.56 -0.35 27.51 1.34 -19.88 -3.64 6.45 0.89 -0.70 4.64 -12.80 -15.81 -2.95 -1.05 22.68 -25.44 66.70 -28.74 -2.26 -1.86 88.04 -11.60 11.41 -26.57 -1.05 -2.14 20.17 -60.47 7.36 3.00 6.96 0.21 9.24 -5.97 4.85 16.58 -1.04 -0.71 -27.00 -30.27 2.29 26.70 -1.55 -2.79 9.82 -33.58 -0.56 26.61 -0.29 -2.88 1.81 -6.06 18.72 
94.79 92.62 53.06 39.12 -7.81 2.79 -8.51 -0.52 -1.55 -6.68 -6.78 -8.72 1.18 -41.77 -1.69 2.70 21.05 3.74 0.34 -42.11 -0.61 -13.15 -8.00 -1.33 8.78 0.41 3.11 -0.45 -12.33 2.13 -1.02 -43.06 2.82 28.87 62.60 22.80 -1.10 -41.06 0.70 -5.81 4.73 3.94 -0.22 10.45 0.11 -12.23 11.10 5.99 -0.37 9.72 -0.02 -2.98 2.82 1.72 -0.34 10.20 0.54 -4.64 4.76 2.73 -0.35 9.77 0.55 2.38 -0.88 -1.20 -0.28 10.50 -0.06 29.37 3.10 -8.43 0.31 9.56 -0.34 27.46 1.07 -20.15 -3.64 6.49 0.79 -0.81 5.40 -12.31 -15.86 -2.56 -0.85 20.08 -23.15 68.45 -28.52 -1.83 -1.45 89.01 -10.91 13.97 -26.55 -0.85 -1.83 21.34 -60.49 6.27 3.00 6.97 0.22 8.98 -5.57 4.82 16.54 -0.97 -0.61 -27.18 -31.55 2.85 26.70 -1.39 -2.48 11.18 -34.12 -1.07 26.61 -0.24 -2.49 0.88 -8.87 19.01 
94.98 92.72 53.59 39.27 -7.55 2.94 -8.59 -0.48 -1.41 -6.94 -6.01 -8.48 1.08 -41.81 -1.54 3.37 20.15 3.70 0.31 -42.10 -0.55 -13.80 -8.01 -1.37 8.81 0.38 2.82 -0.83 -13.84 1.95 -0.96 -43.06 2.56 29.23 61.96 22.02 -1.03 -41.22 0.63 -6.35 3.00 3.33 -0.21 10.46 0.08 -11.97 11.11 5.91 -0.35 9.72 -0.05 -2.91 2.82 1.69 -0.32 10.19 0.49 -4.54 4.75 2.69 -0.33 9.77 0.50 2.37 -0.89 -1.19 -0.29 10.49 -0.08 28.87 3.03 -8.34 0.31 9.56 -0.32 27.77 0.69 -20.26 -3.61 6.54 0.75 -1.53 6.52 -11.64 -15.89 -2.20 -0.61 18.73 -21.08 69.21 -28.28 -1.51 -1.10 90.02 -10.28 15.90 -26.53 -0.66 -1.56 22.31 -60.11 5.95 3.01 6.98 0.20 8.48 -5.10 5.05 16.53 -0.89 -0.57 -27.58 -32.91 3.46 26.68 -1.21 -2.27 12.31 -34.99 -1.34 26.59 -0.15 -2.15 0.08 -11.24 19.40 
95.16 92.79 54.12 39.53 -7.28 3.07 -8.67 -0.45 -1.33 -7.34 -5.47 -8.26 0.97 -41.84 -1.44 3.70 19.54 3.55 0.27 -42.10 -0.49 -14.00 -8.14 -1.42 8.81 0.37 2.65 -1.91 -15.03 1.97 -0.82 -43.02 2.40 30.12 60.80 20.83 -0.90 -41.36 0.57 -6.96 1.40 2.80 -0.19 10.46 0.06 -11.79 11.09 5.79 -0.33 9.73 -0.07 -2.87 2.81 1.66 -0.30 10.19 0.43 -4.48 4.73 2.64 -0.32 9.77 0.44 2.36 -0.89 -1.17 -0.31 10.49 -0.12 27.88 2.84 -8.06 0.35 9.56 -0.26 28.41 0.17 -20.25 -3.60 6.57 0.62 -1.70 7.79 -11.24 -15.90 -1.93 -0.47 16.89 -19.29 69.92 -28.06 -1.26 -0.81 91.02 -9.97 17.59 -26.51 -0.50 -1.35 22.95 -59.43 6.42 3.02 6.97 0.16 7.97 -4.52 5.49 16.49 -0.84 -0.51 -27.89 -34.37 4.06 26.66 -1.07 -2.08 12.96 -36.03 -1.54 26.55 -0.07 -1.87 -0.70 -13.12 19.70 
95.34 92.85 54.62 39.93 -6.99 3.20 -8.74 -0.41 -1.20 -7.59 -4.86 -8.12 0.88 -41.87 -1.29 3.56 18.91 3.40 0.22 -42.11 -0.44 -13.93 -8.37 -1.52 8.83 0.37 2.51 -3.10 -16.20 1.97 -0.88 -43.01 2.31 30.30 59.48 19.62 -0.98 -41.47 0.52 -7.06 -0.06 1.53 -0.17 10.46 0.04 -11.66 11.04 5.69 -0.30 9.73 -0.10 -2.84 2.79 1.63 -0.28 10.19 0.37 -4.44 4.70 2.59 -0.30 9.77 0.38 2.35 -0.90 -1.17 -0.30 10.48 -0.16 27.49 2.82 -8.02 0.35 9.56 -0.21 28.58 -0.06 -20.41 -3.58 6.61 0.56 -2.34 9.15 -10.70 -15.92 -1.68 -0.32 15.56 -17.91 70.17 -27.85 -1.06 -0.60 91.84 -9.97 19.16 -26.49 -0.36 -1.18 23.33 -58.76 7.36 3.02 6.94 0.12 7.42 -3.60 6.03 16.44 -0.81 -0.46 -28.36 -35.93 4.75 26.62 -0.97 -1.91 13.15 -36.91 -1.45 26.48 0.00 -1.63 -1.78 -14.71 19.61 
